<svg xmlns="http://www.w3.org/2000/svg" viewBox="0 0 100 100">
  <defs>
    <linearGradient id="canva-grad" x1="0%" y1="0%" x2="100%" y2="100%">
      <stop offset="0%" stop-color="#00C4CC"/>
      <stop offset="100%" stop-color="#7D2AE8"/>
    </linearGradient>
  </defs>
  <circle cx="50" cy="50" r="48" fill="url(#canva-grad)"/>
  <path fill="#FFFFFF" d="M68.5 49.3c-.6 0-1.2.2-1.7.5-.4-3.8-2.6-7.3-6.5-7.3-3.6 0-6.1 2.8-7.3 6.3-1.6-1.5-3.8-2.5-6.3-2.5-6.2 0-10.7 5.6-10.7 13.3 0 7.8 4.7 13.4 11.2 13.4 3.7 0 6.6-1.8 8.1-4.7 1.4 2.8 4.2 4.7 7.7 4.7 4.2 0 7.5-2.9 8.2-7.5.8 0 1.5-.3 2.1-.8 1.1-.9 1.4-2.4 1.4-3.6 0-7-4.1-11.8-6.2-11.8zm-29.2 10.3c0-5.1 2.7-9 6.5-9 3.5 0 5.8 3.3 6 8.3-2.1 4.5-5.6 7.4-8.7 7.4-2.5 0-3.8-2.5-3.8-6.7zm17.9 3.2c0 2.9-1.5 5.5-3.7 5.5-1.5 0-2.8-1.2-3.7-3.1 1.7-4.1 4.2-9 6.2-9 .8 0 1.2.8 1.2 2.3v4.3zm9.2 0c0 3.2-1.6 5.5-3.9 5.5-1.6 0-2.8-1.4-3.5-3.4.8-2.8 2.2-6.5 4.3-6.5 1.9 0 3.1 1.8 3.1 4.4z"/>
</svg>
