<svg xmlns="http://www.w3.org/2000/svg" viewBox="0 0 128 128">
  <path fill="#21759B" d="M64 0C28.7 0 0 28.7 0 64s28.7 64 64 64 64-28.7 64-64S99.3 0 64 0z"/>
  <path fill="#FFFFFF" d="M9.1 64c0 22.7 13.2 42.3 32.3 51.6L14.1 40.7C10.9 47.9 9.1 55.7 9.1 64zm101.4-2.8c0-7.1-2.5-12-4.7-15.8-2.9-4.7-5.6-8.7-5.6-13.4 0-5.3 4-10.2 9.6-10.2.3 0 .5 0 .7.1-10.2-9.3-23.8-15-38.7-15-20 0-37.7 10.3-47.9 25.8 1.3 0 2.6.1 3.7.1 6 0 15.3-.7 15.3-.7 3.1-.2 3.5 4.4.4 4.7 0 0-3.1.4-6.6.5L50.8 115l12.5-37.6-8.9-24.5c-3.1-.2-6-.5-6-.5-3.1-.2-2.7-4.9.4-4.7 0 0 9.5.7 15.1.7 6 0 15.3-.7 15.3-.7 3.1-.2 3.5 4.4.4 4.7 0 0-3.1.4-6.6.5l20.7 61.6 5.7-19.1c2.5-7.9 4.4-13.6 4.4-18.5zm-49.8 4.9L43.5 116c5.1 1.5 10.6 2.3 16.2 2.3 6.7 0 13.1-1.2 19-3.2-.2-.2-.3-.5-.4-.8L60.7 66.1zm49.3-32.5c.2 1.8.4 3.8.4 5.9 0 5.8-1.1 12.4-4.4 20.5l-17.5 50.6c17-9.9 28.5-28.4 28.5-49.5 0-9.9-2.5-19.3-7-27.5z"/>
</svg>

